<?xml version="1.0" encoding="UTF-8"?>
<!DOCTYPE svg PUBLIC "-//W3C//DTD SVG 1.1//EN" "http://www.w3.org/Graphics/SVG/1.1/DTD/svg11.dtd">
<svg xmlns="http://www.w3.org/2000/svg" version="1.1" width="860px" height="852px" style="shape-rendering:geometricPrecision; text-rendering:geometricPrecision; image-rendering:optimizeQuality; fill-rule:evenodd; clip-rule:evenodd" xmlns:xlink="http://www.w3.org/1999/xlink">
<g><path style="opacity:1" fill="#3d45cd" d="M 421.5,232.5 C 468.719,232.296 510.219,247.629 546,278.5C 551.686,273.313 557.519,268.313 563.5,263.5C 568.03,283.983 572.363,304.483 576.5,325C 554.294,321.618 532.294,316.951 510.5,311C 516.969,305.532 523.136,299.699 529,293.5C 529.667,292.833 529.667,292.167 529,291.5C 492.462,260.091 450.128,242.091 402,237.5C 396.918,238.637 391.751,238.804 386.5,238C 398.196,235.418 409.862,233.584 421.5,232.5 Z"/></g>
<g><path style="opacity:1" fill="#04cd41" d="M 349.5,262.5 C 351.167,262.5 352.833,262.5 354.5,262.5C 352.856,284.959 350.19,307.292 346.5,329.5C 339.775,322.395 333.275,315.062 327,307.5C 295.251,349.844 282.251,397.177 288,449.5C 269.231,391.961 276.731,338.295 310.5,288.5C 305.286,281.908 299.953,275.408 294.5,269C 312.978,266.821 331.312,264.655 349.5,262.5 Z"/></g>
<g><path style="opacity:1" fill="#f1a5be" d="M 442.5,314.5 C 447.179,314.334 451.845,314.501 456.5,315C 457.915,318.182 457.581,321.182 455.5,324C 456.954,325.713 458.788,326.88 461,327.5C 465.43,320.864 469.596,321.031 473.5,328C 472.484,329.677 471.484,331.343 470.5,333C 480.52,346.124 481.02,359.624 472,373.5C 457.013,386.831 442.013,386.831 427,373.5C 419.164,361.952 418.497,349.952 425,337.5C 429.647,331.097 435.814,327.097 443.5,325.5C 442.849,323.174 442.182,320.841 441.5,318.5C 441.623,317.075 441.957,315.742 442.5,314.5 Z M 444.5,333.5 C 459.511,332.349 468.178,339.182 470.5,354C 467.236,370.965 457.236,377.299 440.5,373C 429.422,366.203 426.255,356.703 431,344.5C 437.108,348.308 442.274,353.141 446.5,359C 454.172,359.965 456.505,356.965 453.5,350C 446.354,348.094 439.687,345.094 433.5,341C 436.574,337.476 440.241,334.976 444.5,333.5 Z"/></g>
<g><path style="opacity:1" fill="#880013" d="M 603.5,364.5 C 604.833,365.167 604.833,365.167 603.5,364.5 Z"/></g>
<g><path style="opacity:1" fill="#880013" d="M 604.5,368.5 C 605.525,368.897 605.692,369.563 605,370.5C 604.536,369.906 604.369,369.239 604.5,368.5 Z"/></g>
<g><path style="opacity:1" fill="#880013" d="M 605.5,371.5 C 617.959,413.489 615.792,454.822 599,495.5C 594.16,505.823 588.327,515.49 581.5,524.5C 587.27,532.44 593.603,539.94 600.5,547C 580.865,549.496 561.199,551.663 541.5,553.5C 543.67,531.471 546.17,509.471 549,487.5C 554.432,494.022 560.099,500.355 566,506.5C 596.243,466.595 609.409,421.595 605.5,371.5 Z"/></g>
<g><path style="opacity:1" fill="#b57853" d="M 353.5,393.5 C 360.088,393.931 366.422,395.431 372.5,398C 378.839,398.445 385.173,398.278 391.5,397.5C 396.357,397.372 401.023,398.205 405.5,400C 409.661,405.071 408.661,409.071 402.5,412C 393.345,415.069 384.012,416.235 374.5,415.5C 385.709,419.78 396.709,419.28 407.5,414C 415.197,408.487 423.197,403.487 431.5,399C 439.694,396.963 442.194,399.796 439,407.5C 424.292,421.886 407.292,432.553 388,439.5C 375.602,435.48 363.102,431.646 350.5,428C 340.281,426.59 330.114,426.09 320,426.5C 317.554,419.715 316.887,412.715 318,405.5C 318.303,403.112 319.137,400.945 320.5,399C 331.942,399.007 342.942,397.174 353.5,393.5 Z"/></g>
<g><path style="opacity:1" fill="#b57853" d="M 540.5,395.5 C 548.606,396.359 556.606,397.859 564.5,400C 569.167,400.333 573.833,400.667 578.5,401C 580.937,405.312 581.937,409.979 581.5,415C 581.67,419.325 581.003,423.492 579.5,427.5C 578.672,428.415 577.672,429.081 576.5,429.5C 572.653,429.258 568.653,428.925 564.5,428.5C 559.161,428.934 553.827,429.434 548.5,430C 535.955,433.279 523.622,437.112 511.5,441.5C 509.077,441.406 506.744,440.906 504.5,440C 488.358,432.514 473.858,422.681 461,410.5C 457.019,405.627 457.852,401.961 463.5,399.5C 466.673,400.21 469.673,401.377 472.5,403C 479.495,408.166 486.828,412.833 494.5,417C 504.818,421.603 515.151,421.603 525.5,417C 516.773,416.877 508.106,416.21 499.5,415C 495.778,413.9 492.944,411.734 491,408.5C 490.542,405.904 491.375,403.737 493.5,402C 498.139,400.155 502.973,399.322 508,399.5C 513.833,400.168 519.666,400.334 525.5,400C 530.647,398.558 535.647,397.058 540.5,395.5 Z"/></g>
<g><path style="opacity:1" fill="#fef200" d="M 316.5,487.5 C 338.279,492.195 359.946,497.361 381.5,503C 374.864,508.634 368.531,514.634 362.5,521C 396.419,550.622 435.752,568.956 480.5,576C 487.5,576.333 494.5,576.667 501.5,577C 442.873,588.23 391.039,574.396 346,535.5C 339.958,540.03 334.291,545.03 329,550.5C 324.511,529.554 320.344,508.554 316.5,487.5 Z"/></g>
<g><path style="opacity:1" fill="#fef200" d="M 507.5,575.5 C 506.833,574.167 506.833,574.167 507.5,575.5 Z"/></g>
<g><path style="opacity:1" fill="#fef200" d="M 508.5,575.5 C 508.897,574.475 509.563,574.308 510.5,575C 509.906,575.464 509.239,575.631 508.5,575.5 Z"/></g>
<g><path style="opacity:1" fill="#fef200" d="M 506.5,575.5 C 505.749,576.573 504.749,576.74 503.5,576C 504.448,575.517 505.448,575.351 506.5,575.5 Z"/></g>
<g><path style="opacity:1" fill="#fef200" d="M 507.5,575.5 C 507.833,575.5 508.167,575.5 508.5,575.5C 508.315,576.17 507.981,576.17 507.5,575.5 Z"/></g>
</svg>
