<?xml version="1.0" standalone="no"?>
<!DOCTYPE svg PUBLIC "-//W3C//DTD SVG 20010904//EN"
 "http://www.w3.org/TR/2001/REC-SVG-20010904/DTD/svg10.dtd">
<svg version="1.0" xmlns="http://www.w3.org/2000/svg"
 width="356.000000pt" height="392.000000pt" viewBox="0 0 356.000000 392.000000"
 preserveAspectRatio="xMidYMid meet">
<metadata>
Created by potrace 1.10, written by Peter Selinger 2001-2011
</metadata>
<g transform="translate(0.000000,392.000000) scale(0.100000,-0.100000)"
fill="#00ff00" stroke="none">
<path d="M1467 3349 c-84 -12 -132 -27 -158 -48 l-24 -19 20 -22 c18 -20 27
-22 95 -17 129 8 325 -30 500 -97 139 -53 450 -239 450 -269 0 -5 -22 -34 -50
-65 -92 -103 -90 -104 261 -186 163 -38 206 -42 229 -21 22 20 24 -2 -30 280
-53 269 -65 284 -158 200 -27 -25 -54 -45 -60 -45 -5 0 -42 25 -83 55 -92 68
-297 174 -405 209 -45 14 -124 32 -175 41 -101 16 -315 18 -412 4z m393 -34
c219 -35 410 -122 647 -295 l42 -30 59 55 c33 30 64 55 69 55 5 0 29 -100 52
-222 24 -123 45 -231 48 -242 5 -17 1 -18 -43 -11 -45 6 -358 77 -394 89 -8 2
-28 7 -44 11 l-29 6 72 73 72 73 -43 35 c-281 230 -688 381 -977 362 -63 -4
-82 -2 -69 5 15 10 126 36 193 44 76 10 259 5 345 -8z"/>
<path d="M970 3123 c-25 -2 -101 -10 -170 -18 -69 -8 -129 -15 -132 -15 -12 0
-38 -31 -38 -45 0 -7 23 -41 52 -75 l51 -62 -22 -36 c-49 -83 -141 -274 -152
-314 -51 -199 -51 -200 -52 -393 -1 -153 2 -206 17 -270 46 -203 80 -275 113
-243 12 12 13 33 4 129 -21 249 24 487 136 713 52 106 111 206 122 206 5 0 36
-29 70 -65 33 -36 67 -65 74 -65 39 0 51 56 91 408 17 160 19 159 -164 145z
m145 -45 c-3 -13 -12 -88 -20 -168 -22 -205 -39 -315 -48 -313 -4 1 -37 36
-74 78 -37 41 -70 75 -75 75 -13 0 -92 -127 -142 -227 -113 -228 -168 -498
-146 -721 5 -53 12 -108 16 -122 10 -44 -14 0 -31 55 -76 249 -83 528 -19 765
26 95 109 274 164 355 17 24 30 47 30 51 0 4 -21 33 -48 63 -26 31 -53 63 -60
72 -11 14 3 18 140 33 197 21 214 22 271 24 44 2 47 1 42 -20z"/>
<path d="M1757 2730 c-14 -11 -28 -33 -32 -48 -3 -16 -27 -46 -56 -71 -118
-102 -132 -253 -34 -369 37 -45 97 -73 166 -79 49 -5 66 -1 122 24 132 62 183
201 122 331 -14 30 -25 66 -25 80 -1 44 -50 89 -83 76 -10 -3 -18 2 -22 15
-18 57 -108 80 -158 41z m120 -36 c3 -9 1 -25 -5 -35 -18 -28 -15 -36 15 -44
19 -4 31 -2 39 9 25 35 79 2 56 -35 -10 -15 -7 -25 13 -55 33 -48 38 -72 33
-143 -6 -81 -39 -130 -113 -166 -103 -51 -216 -21 -276 74 -24 37 -29 56 -29
108 0 43 6 76 19 102 25 48 84 100 122 108 32 6 35 14 17 42 -21 34 -4 51 52
51 38 0 52 -4 57 -16z"/>
<path d="M1755 2560 c-59 -25 -99 -94 -93 -161 12 -123 146 -186 248 -116 126
86 63 288 -89 286 -25 0 -55 -4 -66 -9z m129 -49 c39 -26 55 -57 56 -104 0
-68 -80 -129 -147 -112 -35 8 -93 67 -93 94 0 29 12 26 60 -14 48 -40 67 -43
104 -14 49 39 23 103 -56 137 -16 6 -28 16 -28 22 0 17 74 11 104 -9z m-124
-36 c27 -14 56 -25 64 -25 19 0 38 -34 30 -54 -12 -30 -49 -17 -107 38 -78 75
-75 86 13 41z"/>
<path d="M2947 2392 c-16 -17 -16 -24 -1 -98 44 -211 -7 -497 -134 -764 -41
-86 -108 -190 -122 -190 -6 0 -32 23 -58 50 -81 83 -103 65 -121 -95 -41 -377
-42 -379 -23 -398 17 -16 28 -17 132 -7 367 35 382 39 355 89 -7 14 -36 53
-64 86 -28 32 -51 63 -51 68 0 5 8 21 18 35 167 243 244 595 198 903 -29 190
-75 339 -105 339 -4 0 -15 -8 -24 -18z m65 -146 c97 -387 44 -750 -154 -1053
l-40 -63 72 -85 c40 -47 71 -87 69 -89 -4 -2 -69 -9 -353 -37 -54 -5 -100 -8
-102 -6 -3 3 10 134 37 382 6 61 15 114 19 118 4 4 35 -24 70 -63 l63 -71 38
53 c115 161 213 413 244 630 19 132 19 222 0 328 -8 47 -15 90 -14 95 1 20 31
-61 51 -139z"/>
<path d="M2630 940 c-11 -8 -7 -9 15 -4 37 8 45 14 19 14 -10 0 -26 -5 -34
-10z"/>
<path d="M1000 2124 c-25 -7 -68 -13 -96 -13 -74 -1 -96 -28 -101 -123 -3 -57
0 -81 14 -108 l18 -35 115 -7 c112 -6 214 -30 312 -72 21 -9 63 -16 94 -16 48
0 68 7 132 42 42 23 119 74 172 114 117 88 141 130 104 182 -24 34 -78 29
-148 -13 -32 -19 -60 -35 -61 -35 -2 0 -19 16 -38 35 l-35 35 -110 0 c-72 0
-124 5 -152 15 -50 18 -157 18 -220 -1z m200 -29 c28 -10 81 -15 155 -15 94 0
117 -3 135 -18 17 -13 21 -24 16 -40 -13 -39 -62 -56 -176 -61 l-105 -4 50
-13 c114 -31 189 -12 318 76 58 38 89 53 115 54 33 1 37 -2 40 -26 3 -22 -8
-36 -70 -87 -40 -33 -115 -85 -168 -117 -115 -69 -158 -77 -240 -44 -123 49
-185 63 -304 69 l-120 6 -9 35 c-11 42 -3 136 14 156 7 9 32 14 68 15 31 0 76
6 101 13 63 18 130 19 180 1z"/>
<path d="M2455 2121 c-11 -5 -79 -12 -150 -16 -138 -8 -172 -18 -199 -60 l-17
-25 -42 28 c-87 58 -131 66 -165 29 -27 -29 -28 -50 -2 -92 51 -83 321 -255
400 -255 21 0 82 16 136 36 55 20 133 41 174 46 79 11 81 11 148 7 35 -3 47 1
69 24 23 23 28 37 31 95 5 82 -14 137 -53 152 -58 22 -299 45 -330 31z m125
-31 c19 -6 73 -15 119 -20 46 -5 88 -13 94 -19 16 -16 20 -143 5 -171 -13 -24
-17 -25 -124 -26 -103 -2 -119 -5 -230 -44 -170 -60 -169 -60 -261 -10 -217
119 -345 242 -274 265 27 8 66 -9 156 -70 104 -71 171 -89 266 -73 37 7 66 15
63 20 -3 4 -43 8 -90 8 -116 0 -184 31 -170 78 10 32 51 42 169 42 72 0 126 5
152 15 48 17 79 18 125 5z"/>
<path d="M807 1422 c-10 -10 -17 -25 -17 -33 0 -40 83 -427 96 -446 21 -33 44
-29 103 18 l52 42 42 -31 c148 -110 345 -212 490 -252 120 -34 323 -62 403
-56 84 7 226 34 270 52 83 35 58 68 -50 65 -172 -5 -424 59 -616 155 -116 58
-301 176 -335 214 l-20 22 41 37 c23 20 49 48 59 64 17 26 17 28 0 47 -18 20
-51 32 -155 55 -319 73 -338 75 -363 47z m183 -43 c74 -17 164 -37 200 -46 36
-8 77 -17 93 -20 15 -3 27 -8 27 -12 0 -4 -32 -36 -71 -71 l-72 -64 39 -33
c77 -66 250 -176 368 -233 228 -111 426 -158 617 -148 90 5 92 5 49 -8 -60
-17 -246 -44 -306 -44 -60 0 -279 34 -351 54 -146 41 -318 129 -465 238 l-78
58 -64 -55 -64 -54 -11 47 c-15 65 -81 404 -81 414 0 13 27 9 170 -23z"/>
</g>
</svg>
